<?xml version="1.0" encoding="utf-8"?>
<!-- Generator: Adobe Illustrator 25.0.0, SVG Export Plug-In . SVG Version: 6.00 Build 0)  -->
<svg version="1.1" id="Layer_1" xmlns="http://www.w3.org/2000/svg" xmlns:xlink="http://www.w3.org/1999/xlink" x="0px" y="0px"
	 viewBox="0 0 100 100.1" style="enable-background:new 0 0 100 100.1;" xml:space="preserve">
<style type="text/css">
	.st0{fill:#FBBC05;}
</style>
<g>
	<g>
		<path class="st0" d="M10.3,9.1c0-0.6,0.6-1.1,1.2-1c2.6,0,5.2,0,7.8,0c0.6,0,1.1,0.4,1.1,1c0.7,12.4,1.3,24.8,2,37.2
			c2,0,4.1,0,6.1,0c0.5-10.2,1.1-20.4,1.6-30.6c0-0.5,0.1-1.1,0.1-1.6c0.1-0.5,0.6-1,1.1-1c2.3,0,4.6,0,6.8,0c0.6,0,1.1,0.5,1.1,1.1
			c0.6,10.7,1.2,21.4,1.7,32.1c1.5,0,3,0,4.5,0c0-2.6,0-5.1,0-7.7c0-1.6,0.6-3.3,1.7-4.5c1.2-1.5,2.9-2.4,4.8-2.7
			c0.7-0.1,1.3-0.1,2-0.1c1.6,0,3.2,0,4.8,0c0-1.5,0.4-3,1.3-4.3c1.1-1.7,2.9-2.8,4.9-3.2c0.8-0.2,1.7-0.1,2.5-0.1
			c5.9,0,11.9,0,17.8,0c1.6,0,3.1,0.6,4.4,1.5c1.8,1.4,2.9,3.6,2.9,5.8c0,5.1,0,10.1,0,15.2c2,0,3.9,0,5.9,0c0.5,0,1.1,0.4,1.1,1
			c0,1,0,2,0,3c0,0.5-0.2,1-0.6,1.2c-0.6,0.2-1.2,0.1-1.8,0.1c0,11.4,0,22.8,0,34.3c0.5,0,1,0,1.6,0c0.5,0.1,0.9,0.6,0.9,1.2
			c0,1.3,0,2.6,0,4c0,0.6-0.6,1.2-1.2,1.1c-32,0-64,0-96,0c-0.4,0-0.7,0-1.1-0.1c-0.5-0.1-0.8-0.6-0.8-1.1c0-1.4,0-2.7,0-4.1
			c0-0.5,0.4-1,1-1.1c0.5,0,0.9,0,1.4,0c0-11.4,0-22.9,0-34.3c-0.5,0-1,0-1.4,0c-0.5,0-1-0.5-1-1c0-1,0-2.1,0-3.1
			c0-0.6,0.5-1.1,1.1-1.1c2.2,0,4.5,0,6.7,0C9,33.8,9.6,21.5,10.3,9.1z M12.5,10.3c-0.1,1.5-0.1,2.9-0.2,4.4c2.1,0,4.2,0,6.2,0
			c-0.1-1.5-0.2-2.9-0.2-4.4C16.3,10.3,14.4,10.3,12.5,10.3z M32.4,15.3c-0.1,1.2-0.1,2.4-0.2,3.6c1.7,0,3.4,0,5.1,0
			c0-1.2-0.1-2.4-0.2-3.6C35.6,15.3,34,15.3,32.4,15.3z M12.1,17c-0.1,1.5-0.1,3-0.2,4.5c2.3,0,4.6,0,7,0c-0.1-1.5-0.2-3-0.2-4.5
			C16.4,17,14.3,17,12.1,17z M31.9,24.7c1.9,0,3.8,0,5.7,0c0-1.2-0.1-2.4-0.2-3.7c-1.8,0-3.6,0-5.3,0C32.1,22.3,32,23.5,31.9,24.7z
			 M11.5,29c2.6,0,5.2,0,7.7,0c-0.1-1.8-0.2-3.5-0.3-5.3c-2.4,0-4.8,0-7.2,0C11.7,25.5,11.6,27.2,11.5,29z M65.1,26
			c-1,0.2-2,0.8-2.7,1.6c-0.9,1-1.4,2.3-1.4,3.7c0.4,0,0.9,0,1.3,0c-0.1-2.1,1.8-4,3.8-4c6.3,0,12.7,0,19,0c2,0,3.9,1.8,3.9,3.8
			c0,5.1,0,10.1,0,15.2c0.4,0,0.9,0,1.3,0c0-4.6,0-9.1,0-13.7c0-1,0.1-2.1-0.3-3.1c-0.6-2.1-2.7-3.6-4.8-3.6c-6.1,0-12.3,0-18.4,0
			C66.2,25.9,65.6,25.8,65.1,26z M31.8,27c-0.1,1.4-0.2,2.8-0.2,4.2c2.1,0,4.3,0,6.4,0c-0.1-1.4-0.1-2.8-0.2-4.2
			C35.8,27,33.8,27,31.8,27z M64.5,31.2c2.5,0,5,0,7.5,0c1.9,0,3.8,0.8,5.1,2.2c1.4,1.4,2.3,3.3,2.3,5.3c0,2.5,0,5.1,0,7.6
			c2.4,0,4.9,0,7.3,0c0-4.8,0-9.5,0-14.3c0-0.4,0-0.8-0.1-1.2c-0.1-0.5-0.5-0.9-0.9-1.1c-0.4-0.2-0.8-0.1-1.2-0.1
			c-6.1,0-12.3,0-18.4,0C65.2,29.4,64.5,30.3,64.5,31.2z M11.4,31.2c-0.1,1.5-0.1,3-0.2,4.5c2.8,0,5.6,0,8.5,0
			c-0.1-1.5-0.1-3-0.2-4.5c-0.2-0.1-0.4,0-0.6,0C16.3,31.2,13.8,31.2,11.4,31.2z M31.5,33.4c-0.1,1.2-0.1,2.4-0.2,3.6
			c2.3,0,4.7,0,7,0c0-1.2-0.1-2.4-0.2-3.6C35.9,33.4,33.7,33.4,31.5,33.4z M52.2,33.5c-1.1,0.2-2.2,0.7-2.9,1.5
			c-1,1-1.5,2.3-1.5,3.7c0,2.5,0,5,0,7.5c0.4,0,0.9,0,1.3,0c0-2.5,0-5.1,0-7.6c0-1.7,1.3-3.3,3-3.7c0.5-0.2,1.1-0.1,1.7-0.1
			c6.1,0,12.2,0,18.3,0c1,0,2,0.5,2.7,1.2c0.7,0.7,1.1,1.7,1.1,2.8c0,2.5,0,5,0,7.5c0.4,0,0.9,0,1.3,0c0-1.9,0-3.8,0-5.7
			c0-1.1,0.1-2.2-0.2-3.2c-0.6-2.1-2.7-3.8-5-3.8c-6.1,0-12.2,0-18.3,0C53.2,33.4,52.7,33.4,52.2,33.5z M51.3,38.7c0,2.5,0,5,0,7.5
			c2.5,0,4.9,0,7.4,0c0-3.1,0-6.1,0-9.2c-1.9,0-3.8,0-5.6,0C52.2,37,51.3,37.8,51.3,38.7z M61,46.2c0.4,0.1,0.9,0,1.3,0
			c0-3.1,0-6.1,0-9.2c-0.4,0-0.9,0-1.3,0C61,40.1,60.9,43.1,61,46.2z M64.5,37c0,3.1,0,6.1,0,9.2c3,0,6.1,0,9.1,0c0-2.5,0-5,0-7.5
			c0-0.9-0.7-1.7-1.6-1.7C69.5,37,67,37,64.5,37z M10.6,46.2c3.2,0,6.4,0,9.6,0c-0.1-2.8-0.3-5.5-0.4-8.3c-2.9,0-5.8,0-8.7,0
			C10.8,40.7,10.7,43.5,10.6,46.2z M30.8,46.2c2.7,0,5.3,0,8,0c-0.1-2.3-0.3-4.6-0.4-6.9c-2.4,0-4.9,0-7.3,0
			C31,41.6,30.9,43.9,30.8,46.2z M2.7,48.4c0,0.2,0,0.5,0,0.7c31.5,0,63,0,94.6,0c0-0.2,0-0.5,0-0.7C65.8,48.4,34.2,48.4,2.7,48.4z
			 M5.1,85.7c10.6,0,21.2,0,31.8,0c0-5.5,0-10.9,0-16.4c-0.1-0.6,0.5-1.2,1.1-1.2c8,0,16.1,0,24.1,0c0.6-0.1,1.2,0.5,1.2,1.1
			c0,5.5,0,11,0,16.5c4,0,7.9,0,11.9,0c6.6,0,13.1,0,19.7,0c0-11.4,0-22.8,0-34.3c-29.9,0-59.8,0-89.7,0C5.1,62.8,5.1,74.3,5.1,85.7
			z M39.2,70.4c0,5.1,0,10.2,0,15.3c1.3,0,2.6,0,3.9,0c0-5.1,0-10.2,0-15.3C41.8,70.4,40.5,70.4,39.2,70.4z M45.3,85.7
			c5.2,0,10.5,0,15.7,0c0-5.1,0-10.2,0-15.3c-5.2,0-10.5,0-15.7,0C45.3,75.5,45.3,80.6,45.3,85.7z M2.7,87.9c0,0.6,0,1.2,0,1.8
			c31.5,0,63,0,94.6,0c0-0.6,0-1.2,0-1.8C65.8,87.9,34.2,87.9,2.7,87.9z"/>
	</g>
	<g>
		<path class="st0" d="M9.3,56.3c1.7,0,3.4,0,5.1,0c0.4,0,0.8,0.1,1,0.5c0.3,0.3,0.2,0.8,0.2,1.1c0,7.3,0,14.6,0,21.9
			c0,0.6-0.5,1.2-1.1,1.1c-1.7,0-3.4,0-5.1,0c-0.5,0-1-0.4-1.1-0.9c0-0.3,0-0.7,0-1c0-7.2,0-14.4,0-21.6C8.3,56.9,8.8,56.3,9.3,56.3
			z M10.6,58.5c0,6.7,0,13.4,0,20.2c0.9,0,1.9,0,2.8,0c0-6.7,0-13.4,0-20.2C12.5,58.5,11.6,58.5,10.6,58.5z"/>
	</g>
	<g>
		<path class="st0" d="M19,56.2c1.7,0,3.4,0,5.1,0c0.6,0,1.2,0.6,1.1,1.2c0,7.4,0,14.9,0,22.3c0,0.6-0.5,1.1-1.1,1.1
			c-1.7,0-3.4,0-5.1,0c-0.5,0-1-0.3-1.1-0.8c-0.1-0.3,0-0.7-0.1-1c0-7.2,0-14.5,0-21.7C17.9,56.8,18.4,56.2,19,56.2z M20.2,58.5
			c0,6.7,0,13.4,0,20.2c0.9,0,1.9,0,2.8,0c0-6.7,0-13.4,0-20.2C22.1,58.5,21.1,58.5,20.2,58.5z"/>
	</g>
	<g>
		<path class="st0" d="M28.5,56.2c1.7,0,3.4,0,5.1,0c0.6,0,1.2,0.5,1.1,1.2c0,7.4,0,14.9,0,22.3c0,0.6-0.5,1.2-1.1,1.1
			c-1.7,0-3.4,0-5.1,0c-0.6,0-1.2-0.5-1.1-1.1c0-7.4,0-14.9,0-22.3C27.4,56.8,27.9,56.3,28.5,56.2z M29.7,78.6c0.9,0,1.9,0,2.8,0
			c0-4.4,0-8.7,0-13.1c0-2.4,0-4.7,0-7.1c-0.9,0-1.9,0-2.8,0C29.7,65.2,29.7,71.9,29.7,78.6z"/>
	</g>
	<g>
		<path class="st0" d="M66.5,56.2c1.7,0,3.4,0,5.2,0c0.6,0,1.2,0.6,1.1,1.2c0,7.5,0,14.9,0,22.3c0,0.6-0.5,1.1-1.1,1.1
			c-1.7,0-3.4,0-5,0c-0.6,0-1.2-0.5-1.2-1.1c0-7.4,0-14.9,0-22.3C65.4,56.8,65.9,56.2,66.5,56.2z M67.7,58.5c0,6.7,0,13.4,0,20.2
			c0.9,0,1.9,0,2.8,0c0-6.7,0-13.4,0-20.2C69.6,58.5,68.7,58.5,67.7,58.5z"/>
	</g>
	<g>
		<path class="st0" d="M75.9,56.3c1.8,0,3.5,0,5.3,0c0.6,0,1.2,0.5,1.1,1.2c0,7.4,0,14.9,0,22.3c0,0.6-0.5,1.2-1.2,1.1
			c-1.7,0-3.4,0-5.1,0c-0.5,0-0.9-0.3-1-0.7c-0.1-0.3-0.1-0.7-0.1-1.1c0-7.2,0-14.5,0-21.7C74.9,56.9,75.3,56.3,75.9,56.3z
			 M77.2,78.6c0.9,0,1.9,0,2.8,0c0-6.7,0-13.4,0-20.2c-0.9,0-1.9,0-2.8,0C77.2,65.2,77.2,71.9,77.2,78.6z"/>
	</g>
	<g>
		<path class="st0" d="M85.5,56.3c1.7,0,3.4,0,5.1,0c0.6,0,1.2,0.5,1.2,1.1c0,7.4,0,14.9,0,22.3c0.1,0.6-0.4,1.2-1.1,1.2
			c-1.7,0-3.4,0-5.1,0c-0.6,0-1.2-0.5-1.1-1.1c0-7.3,0-14.6,0-21.9c0-0.3,0-0.7,0.1-1C84.8,56.5,85.1,56.3,85.5,56.3z M86.8,58.5
			c0,6.7,0,13.4,0,20.2c0.9,0,1.9,0,2.8,0c0-6.7,0-13.4,0-20.2C88.6,58.5,87.7,58.5,86.8,58.5z"/>
	</g>
</g>
</svg>
