<?xml version="1.0" encoding="utf-8"?>
<!-- Generator: Adobe Illustrator 25.0.0, SVG Export Plug-In . SVG Version: 6.00 Build 0)  -->
<svg version="1.1" id="Layer_1" xmlns="http://www.w3.org/2000/svg" xmlns:xlink="http://www.w3.org/1999/xlink" x="0px" y="0px"
	 viewBox="0 0 100 100.1" style="enable-background:new 0 0 100 100.1;" xml:space="preserve">
<style type="text/css">
	.st0{fill:#111224;}
	.st1{fill:#FEFFFD;}
	.st2{fill:#FFFFFD;}
	.st3{fill:#FFFEFD;}
	.st4{fill:#111326;}
	.st5{fill:#111225;}
	.st6{fill:#F7F9F8;}
	.st7{fill:#141529;}
	.st8{fill:#0F1126;}
	.st9{fill:#111126;}
	.st10{fill:#111227;}
	.st11{fill:#13122C;}
	.st12{fill:#F0F0F9;}
	.st13{fill:#FBBC05;}
</style>
<g>
	<g>
		<path class="st0" d="M0,510c333.3,0,666.7,0,1000,0v80H0V510z M212.3,537.3c-2,2-2.3,5.5-0.3,7.7c1.4,1.9,4,1.7,6.1,1.9
			c1.1-1.8,3.1-3.5,2.8-5.8c0.3-2.2-1.5-3.5-2.8-4.9C216.1,536.5,213.8,535.7,212.3,537.3z M29.9,537.8c3,8.8,6.2,17.5,9.3,26.3
			c0.7,0,2.2,0,2.9,0c3-8.8,6.3-17.5,9.1-26.3c-1.5,0.1-2.4,0.9-2.6,2.3c-2.7,7.4-5.1,14.9-7.9,22.2c-2.8-7.9-5.4-15.8-8.4-23.7
			C31.6,538.4,30.5,538,29.9,537.8z M86.4,538.4c0,6.8-0.3,13.7,0.2,20.5c0.2,3,2.9,5,5.7,5.2c-0.7-2.2-3.4-3-3.7-5.2
			c-0.5-4.3-0.1-8.7-0.2-13.1c0.9,0,2.8,0,3.7,0c0-0.5,0-1.3,0-1.8c-1.3,0-2.5-0.1-3.8-0.1c0-2.1,0-4.2,0-6.3
			C87.9,537.9,86.9,538.2,86.4,538.4z M129.9,538.8c-3.8,1.3-5.5,6.9-2.6,9.9c3.1,3.2,8.1,2.9,11.7,5.3c2.1,1.5,1.2,4.9-1,5.9
			c-3.8,2-8.1,0.7-11.9-0.6c-0.4,1-0.8,2.1-1.2,3.2c4.9,1.4,10.7,2.7,15.3-0.2c3.6-2,4.6-7.3,1.9-10.4c-3.1-3.3-8-3.1-11.8-5.3
			c-2.1-1.2-1.1-4.5,1-5c3.7-1.5,7.3,0.8,10.4,2.6c0.3-1,0.5-2.1,0.7-3.1C138.9,538.5,134.1,537,129.9,538.8z M146.7,538
			c0.1,6.7-0.2,13.3,0.1,20c0.1,3.8,3.8,5.9,7.2,6.2c0.4-1,0.7-2,1.1-2.9c-1.8-0.7-4.5-0.9-4.8-3.2c-0.3-3.7-0.1-7.4-0.1-11.1
			c1.5,0,3.1-0.1,4.6-0.1c0-0.7,0-2.2,0-2.9c-1.5,0-3.1-0.1-4.6-0.1c0-2,0-4,0-6C149.3,538,147.6,538,146.7,538z M194.1,538
			c0,8.7,0,17.3,0,26c1.2,0,2.3,0,3.5,0c-0.1-3.2-0.1-6.3,0.3-9.5c3.9,1.8,4.9,6.8,8,9.5c1.4,0.1,2.8,0.1,4.3,0.1
			c-2.9-4-5.8-8-8.7-12c2.8-2.7,5.6-5.3,8.3-8.1c-1.5,0-3.1,0-4.6,0c-2.5,2.4-5,4.9-7.6,7.3c-0.1-4.4-0.1-8.8,0-13.2
			C196.4,538,195.3,538,194.1,538z M52.1,547c-3.2,4.3-3.2,11.2,0.9,15c3.5,3,8.6,2.3,12.6,0.5c-0.2-0.6-0.3-1.2-0.5-1.8
			c-3.1,1.5-7,2.6-10.1,0.5c-2.1-1.3-2.7-3.9-3.3-6.2c4.7,0,9.3,0,14,0c-0.3-3.3-0.4-7.1-3.2-9.4C59.4,542.9,54.4,543.8,52.1,547z
			 M74.3,544.5c-8.4,2.8-8,17.4,0.8,19.3c2.8,0.2,6.9,0.9,8.5-2.2c-3.3,0.1-6.9,1.6-9.9-0.2c-4.3-3-4.4-10-1.2-13.8
			c2.8-2.9,7.1-1.4,10.6-1.1C81.5,543.5,77.2,543.8,74.3,544.5z M99.5,544.7c-5.9,2.5-6.9,10.6-3.8,15.6c3,4.8,10.7,5,14.1,0.6
			c2.7-3.6,2.8-8.7,0.8-12.6C108.6,544.5,103.4,543,99.5,544.7z M115,543.6c-0.1,6.8,0,13.6,0,20.5c0.5,0,1.4-0.1,1.9-0.1
			c-0.1-5,0-10,0-14.9c2-1.6,4.2-2.9,6.6-3.8c-1.9-2.7-4.6,0.5-6.5,1.6C117.2,545.2,116.5,544.1,115,543.6z M162.4,544.5
			c-6.1,2.1-7.3,10.3-4.4,15.5c2.7,5,10.6,5.6,14.2,1.2c2.9-3.6,3.1-9,0.9-13C171,544.5,166.2,543.1,162.4,544.5z M182.5,544.6
			c-7.6,2.9-7.7,15.9-0.1,18.8c2.9,1.2,5.9,0.4,8.8-0.3c-0.3-1-0.6-2-1-3.1c-2.5,0.8-5.6,1.6-7.8-0.4c-2.8-2.8-2.9-7.7-0.5-10.7
			c2.1-2.4,5.6-1.8,8.4-0.9c0.3-1,0.7-2.1,1-3.1C188.4,544.3,185.3,543.5,182.5,544.6z M727.1,548.7c1.6,4.8,3.2,9.6,5.1,14.3
			c0.4,0,1.2,0,1.6,0c1.9-4.7,3.4-9.5,5.1-14.2c-0.5,0.1-1.5,0.4-1.9,0.5c-1.7,3.5-2.5,7.3-3.9,11c-1.5-3.5-2.4-7.3-3.8-10.8
			C728.7,549.3,727.6,548.9,727.1,548.7z M787,552.1c-0.7,4.4,5.4,4,7,7c-0.5,3.8-5,1.5-7.3,1.1c0.9,4.5,9.3,3.8,9.2-1
			c-0.4-3.7-5.2-3.4-7.1-6c0.3-3.4,4.3-2.1,6.4-1.3c0-0.4,0-1.3,0-1.8C792.6,548.4,788.1,548.6,787,552.1z M826,549
			c0,4.7,0,9.4,0,14.1c0.5,0,1.4-0.1,1.8-0.2c0-1.8,0-3.7,0.1-5.5c2.8,1.3,2.8,5.9,6.4,5.9c-1.1-2.1-2.4-4.2-3.6-6.2
			c1.1-1.4,2.3-2.9,3.3-4.4c-2.7,0.1-4,2.8-6.1,4.2c-0.1-2.7-0.1-5.3-0.1-7.9C827.4,549,826.5,549,826,549z M884.5,549.4
			c-1.7,4.9-3.7,9.9-4.5,15.1c1.2-0.8,1.9-2,2.3-3.4c1.3-4.3,2.8-8.5,3.9-12.8C885.7,548.7,884.9,549.2,884.5,549.4z M887.7,552.1
			c1.8-0.3,3.5-1,5.3-1.2c1.6,0.1,2.8,2.4,1.5,3.6c-2.7,2.5-6.8,4.2-6.7,8.5c3.6,0,7.1,0.1,10.7,0c-1.6-3.2-6.2-0.8-9-1.7
			c2.3-3.3,8.8-4.9,7.2-9.9C894.7,547.7,889.3,548.7,887.7,552.1z M899.5,555.6c1.2,2.5,4.4,2.2,6.6,1.4c-0.7,3.2-3.3,4.9-6.5,4.4
			c0.6,2.8,4.5,1.9,6,0.3c2.9-3.3,3.6-10-0.8-12.3C901.1,547.6,897.4,552.3,899.5,555.6z M909.9,552.7c1.1,0.6,2.2,0.3,3.1-1
			c-0.1,3.1-0.1,6.1-0.1,9.2c-1.1,0.3-2,1-2.5,2c2.2-0.4,5.8,1.3,6.8-1.4c-0.6,0-1.9-0.2-2.5-0.2c0-4.3,0.1-8.5,0-12.7
			C912.7,549.3,911,550.8,909.9,552.7z M921.2,562c2.6,2.3,7.5,0.8,7.7-2.9c0.5-3.6-3.9-5.8-6.7-3.8c0.6,1,1.7,1.3,3.1,0.8
			c0.9,1,2.4,2.1,1.5,3.7c-1.2,2.9-6.1,1.2-5.6-1.8c0.1-2.1-0.1-4.5,1.6-6c1.5-1.6,3.8-1,5.8-1.3c-0.3-0.3-0.7-1-1-1.4
			C920.5,546.9,916.1,557.8,921.2,562z M930,550.5c2,0.2,4,0.2,6.1,0.2c-1.3,1.6-2.5,3.2-3.8,4.8c2,0.8,5.8,1.3,4.5,4.3
			c-1.4,3.6-5.6-1.4-7,1.9c2.8,1.4,7,2.4,8.8-1c1.6-2.8-0.8-5.4-3.3-6.3c1.4-1.6,2.8-3.3,4-5.1C936.2,549.5,931.9,547.6,930,550.5z
			 M944.1,549.4c-3.7,1.8-3.4,6.9-2.6,10.3c0.7,3.5,5.7,4.5,7.9,1.9c1.9-2.8,1.9-6.6,0.8-9.7C949.5,549.3,946.3,548.4,944.1,549.4z
			 M953.7,553.8c0.6-0.5,1.7-1.6,2.3-2.2c0,3.2,0,6.3,0,9.5c-1.2,0.2-2,0.8-2.4,1.9c2.3,0.1,4.7,0,7-0.2c-0.8-0.8-1.6-1.5-2.7-1.9
			c-0.1-4.1,0-8.2-0.1-12.3C955.8,549.5,952.5,551.2,953.7,553.8z M961.6,551.5c1.5,1,2.9-0.2,4.4-0.4c1.9-1,4.1,2.2,2.4,3.5
			c-2.6,2.5-6.7,4.2-6.7,8.5c3.6,0.1,7.1,0.1,10.7-0.1c-1.6-3.1-6.2-0.8-9-1.6c2.2-3.3,8-4.6,7.4-9.3
			C969.6,547.8,963.9,548.6,961.6,551.5z M761,554.3c1.5,1.9,0.7,4.5,1.2,6.8c0.8,1.8,3,2.4,4.7,1.5c-0.8-0.8-1.9-1.5-2.9-2
			c-0.1-1.8-0.2-3.5-0.3-5.3c0.7-0.2,2.1-0.5,2.8-0.6c-0.8-0.5-1.5-1-2.3-1.4c-0.3-0.5-0.8-1.5-1.1-2
			C762.1,551.9,761.7,553.3,761,554.3z M798.9,550.9c-0.6,1.1-1.2,2.3-1.8,3.5c2,2.6-0.7,8.1,3.9,8.6c0.5-0.2,1.5-0.5,2-0.7
			c-3.8-0.7-4.9-7.7-0.5-7.9c-0.8-0.4-1.5-0.8-2.3-1.1C799.8,552.4,799.3,551.7,798.9,550.9z M742.6,562.4c2.3,1.3,5,0.3,6.7-1.5
			c-1.8,0-3.5,0.3-5.3,0.3c-1.4-0.4-1.7-2.1-2.5-3.1c2.5-0.1,5.1-0.1,7.7-0.2c-0.4-2.7-2.2-5.6-5.4-4.8
			C739.3,553.6,738.7,560.5,742.6,562.4z M751,558c-0.3,5.1,7,6.8,9.6,2.8c-1.9,0.1-3.7,0.7-5.6,0.5c-2.8-0.9-2.8-5.5,0-6.3
			c1.7-0.2,3.5,0.1,5.2,0.1C757.5,551.4,750.8,553.2,751,558z M771.2,553.3c-3.6,1.1-4.3,6.5-1.3,8.7c2.6,2.2,7.3,0.6,7.8-2.8
			C778.9,555.5,774.8,551.8,771.2,553.3z M780.2,552.5c-0.2,3.5-0.2,7-0.1,10.5c0.5,0,1.3,0,1.8,0c0-2.6-0.1-5.3,1.1-7.7
			c0.8-0.3,2.3-0.9,3.1-1.1c-1.2-1.2-2.5-1.2-3.7,0C781.8,553.8,780.7,553,780.2,552.5z M807.1,553.4c-3.9,1.3-4.2,7.3-0.5,9.1
			c3.1,1.9,7.4-0.8,7.3-4.4C814.1,554.7,810.2,552,807.1,553.4z M816,558.1c-0.2,5,7.2,6.7,9.6,2.5c-1.6,0.2-3.1,0.4-4.6,0.7
			c-2.7,0.1-4-3.8-2.2-5.6c1.7-1.8,4.4-0.5,6.6-0.8C822.4,551.4,815.7,553.2,816,558.1z M842,561.1c2.1,2.8,6.6,2.5,8.6-0.3
			c-2.8,0.6-7.7,1.5-7.7-2.7c-0.2-3.7,4.3-3.7,6.7-2.5c0.1-2.4-3-2.6-4.7-2.3C841.5,553.7,839.7,558.4,842,561.1z M853.5,553.7
			c-3.5,1.7-3.1,7.5,0.5,8.9c2.7,1.4,6.3-0.4,6.8-3.4C862,555.2,857,551.4,853.5,553.7z M863.1,552.6c-0.1,3.5-0.1,7,0,10.4
			c0.5,0,1.4,0,1.8,0c0-2-0.1-4,0.3-6c0.5-1.9,3-3.2,4.6-1.7c0.6,2.5,0.3,5.2,0.3,7.8c0.5,0,1.4,0,1.8,0c0.2-2.8-1-8.6,3.3-8.2
			c1.6,2.2,0.5,5.5,0.8,8.2c0.5,0,1.4,0,1.9,0c-0.2-2.8,0.3-5.8-0.5-8.5c-1.4-2.4-4.5-1.2-6,0.3c-0.3-0.5-1-1.4-1.3-1.9
			c-1.6,0.2-3.1,0.6-4.6,1.2C864.9,553.7,863.7,553,863.1,552.6z M836.2,561.2c-0.5,1.6,0,2.2,1.7,1.7
			C838.3,561.2,837.8,560.7,836.2,561.2z"/>
	</g>
	<path class="st0" d="M213.9,537.5c1.2-0.8,2.4-0.9,3.7-0.3v0.4c-1.1,0.7-2.4,0.8-3.6,0.3L213.9,537.5z"/>
	<path class="st0" d="M213.4,537.8l0.6,0.2c0.6,2.2-0.1,4.6,0.1,6.9c0.3-0.8,0.8-2.4,1.1-3.2c1.2,1,3.2,2.4,1.6,4
		c-0.6,0.2-1.9,0.5-2.6,0.6C211.6,544.3,209.7,539.8,213.4,537.8z"/>
	<path class="st0" d="M217.6,537.6c3.5-0.1,3.3,6,0.9,7.8C217.4,542.9,217.2,540.3,217.6,537.6z"/>
	<path class="st0" d="M215.1,539.2c1.6-0.5,2.2,0.1,1.6,1.7C215,541.3,214.5,540.8,215.1,539.2z"/>
	<path class="st0" d="M163.3,547.5c3.7-1.8,7.6,1.6,7.6,5.4c0.7,3.7-1.6,8.7-5.9,8.1C158.8,560.3,158.2,550.1,163.3,547.5z"/>
	<path class="st0" d="M741.6,556.5c1.3-2.4,4.6-2.6,5.8,0C745.5,556.6,743.5,556.6,741.6,556.5z"/>
</g>
<g>
	<path class="st1" d="M129.9,538.8c4.2-1.9,9.1-0.3,12.7,2.2c-0.2,1-0.4,2.1-0.7,3.1c-3.1-1.8-6.7-4.1-10.4-2.6
		c-2.1,0.5-3.1,3.8-1,5c3.7,2.2,8.6,2,11.8,5.3c2.7,3.1,1.6,8.4-1.9,10.4c-4.6,2.9-10.4,1.6-15.3,0.2c0.4-1.1,0.8-2.2,1.2-3.2
		c3.8,1.3,8.1,2.6,11.9,0.6c2.2-0.9,3.1-4.4,1-5.9c-3.6-2.3-8.6-2.1-11.7-5.3C124.4,545.8,126,540.2,129.9,538.8z"/>
</g>
<g>
	<path class="st2" d="M146.7,538c0.9,0,2.6,0,3.4,0c0,2,0,4,0,6c1.5,0,3.1,0,4.6,0.1c0,0.7,0,2.2,0,2.9c-1.5,0-3.1,0-4.6,0.1
		c0.1,3.7-0.2,7.4,0.1,11.1c0.3,2.4,3,2.6,4.8,3.2c-0.4,1-0.7,2-1.1,2.9c-3.4-0.3-7.1-2.4-7.2-6.2
		C146.5,551.4,146.8,544.7,146.7,538z"/>
	<path class="st2" d="M182.5,544.6c2.9-1.2,5.9-0.3,8.8,0.4c-0.3,1-0.7,2-1,3.1c-2.7-0.9-6.2-1.5-8.4,0.9c-2.3,3.1-2.2,8,0.5,10.7
		c2.2,2,5.3,1.2,7.8,0.4c0.3,1,0.6,2,1,3.1c-2.9,0.7-5.9,1.5-8.8,0.3C174.8,560.5,174.8,547.5,182.5,544.6z"/>
</g>
<g>
	<g>
		<path class="st3" d="M162.4,544.5c3.8-1.3,8.7,0,10.7,3.7c2.2,4,2,9.4-0.9,13c-3.6,4.4-11.5,3.8-14.2-1.2
			C155.1,554.8,156.3,546.6,162.4,544.5z M163.3,547.5c-5.1,2.6-4.5,12.8,1.7,13.5c4.4,0.6,6.6-4.5,5.9-8.1
			C170.9,549.1,167,545.7,163.3,547.5z"/>
	</g>
</g>
<g>
	<path class="st4" d="M54.3,547.3c2.1-2.3,6.2-1.9,7.9,0.7c1,1.6,1.2,3.5,1.7,5.4c-4.1,0-8.1,0-12.2,0
		C52.2,551.2,52.6,548.8,54.3,547.3z"/>
</g>
<g>
	<path class="st5" d="M100.2,546.3c3.5-1.6,8.2,0.3,9.3,4.1c1.9,4.7-0.4,12.1-6.4,11.9C94.9,562.5,93.5,549.4,100.2,546.3z"/>
</g>
<g>
	<path class="st6" d="M930,550.5c1.9-2.9,6.3-1,9.2-1.3c-1.2,1.8-2.6,3.4-4,5.1c2.5,1,4.9,3.5,3.3,6.3c-1.7,3.4-6,2.4-8.8,1
		c1.5-3.3,5.6,1.7,7-1.9c1.3-3-2.5-3.5-4.5-4.3c1.3-1.6,2.5-3.2,3.8-4.8C934,550.7,932,550.7,930,550.5z"/>
</g>
<g>
	<path class="st7" d="M901.5,551.5c2.4-3,6.6,2.9,3.2,4.2C902.2,557.4,899.5,553.5,901.5,551.5z"/>
</g>
<g>
	<path class="st8" d="M944.2,551.4c1.9-1.8,4.7,0.2,4.6,2.5c0.3,2.6,0.6,6.9-2.8,7.5C941.9,560.5,942.3,554.2,944.2,551.4z"/>
</g>
<g>
	<path class="st9" d="M771.2,555.2c4.1-2.8,6.8,4.8,2.7,6.1C770.4,562.4,768.5,557.1,771.2,555.2z"/>
</g>
<g>
	<path class="st10" d="M807.2,555.2c1.6-1.3,4.3-0.2,4.6,1.8c0.8,2.2-1.4,5.1-3.8,4.3C805.5,560.5,805.2,556.7,807.2,555.2z"/>
</g>
<g>
	<path class="st11" d="M854.2,555.2c1.7-1.3,4.3-0.2,4.7,1.9c0.9,2.2-1.5,5.2-3.8,4.2C852.5,560.5,852.2,556.7,854.2,555.2z"/>
</g>
<g>
	<path class="st12" d="M836.2,561.2c1.6-0.5,2.2,0,1.7,1.7C836.2,563.4,835.6,562.8,836.2,561.2z"/>
</g>
<g>
	<path class="st13" d="M2.7,91.5c31.6,0,63.1,0,94.7,0c0.6,0,1.3-0.4,1.3-1.1c0.1-0.7-0.4-1.3-1.1-1.4c-0.9,0-1.8,0-2.7,0
		c0-11.4,0-22.8,0-34.2c0-0.6-0.6-1.2-1.2-1.2c-0.6,0-1.1,0-1.7,0c0-11.2,0-22.4,0-33.6c0-1.3,0.1-2.6-0.2-3.9
		c-0.3-1.2-0.8-2.3-1.4-3.3c-1.7-2.5-4.7-4.2-7.8-4.2c-2.7,0-5.4,0-8.1,0c-0.8,0-1.5,0.1-2.3,0.3c-3.3,0.8-6.1,3.5-7,6.7
		c-0.3,1-0.4,2.1-0.4,3.1c0,11.7,0,23.3,0,35v0h-0.2c-1,0-2,0-3,0c0,0,0,0,0,0c0,0,0,0,0,0c0,0,0,0,0,0c-0.1,0-0.1,0-0.1,0
		c-0.3,0-0.5,0-0.8,0h-0.5v0c0-0.2,0-0.4,0-0.6c0,0,0-0.1,0-0.1v-0.6c0-0.1,0-0.1,0-0.2c0-0.2,0-0.4,0-0.5c0-0.1,0-0.2,0-0.3v-0.5
		c0-0.1,0-0.1,0-0.2c0-0.1,0-0.2,0-0.3v-0.4c0,0,0-0.1,0-0.1c0-0.1,0-0.2,0-0.4V43h0c0,0,0,0,0,0c0-8.4,0-16.8,0-25.2
		c-0.1-2.4-1.1-4.8-2.8-6.4c-1.8-1.8-4.3-2.9-6.8-2.9c-2.6,0-5.2,0-7.9,0c-2.6,0-5.1,1-6.9,2.9c-1.7,1.7-2.7,4.1-2.8,6.5
		c-2,0.1-4-0.1-6,0.2c-3.2,0.5-6.3,2-8.5,4.3c-2.4,2.4-3.8,5.5-4.2,8.8c-0.2,1.9-0.1,3.9-0.1,5.8c0.1,2,0,4.1,0,6.1
		c0,1.8,0,3.5,0,5.3c0.1,1.6-0.1,3.3,0,4.9c0,0.1-0.1,0.2-0.1,0.3c-2.5,0-5,0-7.5,0c-0.5,0-0.9,0.2-1.2,0.7
		c-0.2,0.4-0.1,0.9-0.1,1.3c0,11.1,0,22.3,0,33.4c-0.9,0-1.8,0-2.8,0c-0.9,0.1-1.3,1.2-0.9,1.9C1.6,91.4,2.2,91.6,2.7,91.5z
		 M89.6,34.6c0,1.1,0,2.2,0,3.4c-7.4,0-14.8,0-22.2,0c0-2.4,0-4.7,0-7.1c7.4,0,14.8,0,22.2,0C89.5,32.1,89.6,33.4,89.6,34.6z
		 M68.1,15c1.1-2.3,3.6-3.8,6.1-3.9c2.1,0,4.2,0,6.2,0c1.4,0,2.9-0.1,4.2,0.4c1.4,0.4,2.5,1.3,3.4,2.5c0.8,1.1,1.4,2.4,1.4,3.8
		c0,1.3,0.1,2.6,0.1,3.9c0,0.9,0,1.7,0,2.6c-0.1,1.4,0,2.8,0,4.1c-7.4,0-14.8,0-22.2,0c0-3.3,0-6.6,0-9.8
		C67.3,17.3,67.6,16.1,68.1,15z M67.4,53.6C67.4,53.6,67.4,53.6,67.4,53.6c0-4.4,0-8.8,0-13.1c7.4,0,14.8,0,22.2,0c0.1,1,0,2,0,2.9
		c-0.1,3.4,0.1,6.8,0,10.2c-5.2,0-10.4,0-15.7,0c-1.6,0-3.2,0-4.8,0c0,0,0,0,0,0L67.4,53.6C67.4,53.6,67.4,53.6,67.4,53.6z
		 M53.3,53.6C53.3,53.6,53.3,53.6,53.3,53.6c-1.2,0-2.3,0-3.5,0c0,0-0.1,0-0.1,0h-0.9c-0.3,0-0.5,0-0.8,0H35.4c0,0,0,0,0,0
		c0-0.3,0-0.6,0-0.8v-7c0-0.1,0-0.2,0-0.3v-1.7h0c0,0,0,0,0,0c0-1.1,0-2.2,0-3.3c7.4,0,14.8,0,22.2,0c0,4.4,0,8.7,0,13.1h0v0H53.3z
		 M35.3,18.1c0-1.9,0.8-3.7,2.2-5c1.3-1.3,3.2-2,5-2c2.6,0,5.2,0,7.9,0c2,0,4,0.9,5.3,2.4c1.1,1.3,1.8,3,1.8,4.7c0,3.4,0,6.8,0,10.3
		c-7.4,0-14.8,0-22.2,0C35.3,24.9,35.3,21.5,35.3,18.1z M57.5,30.9c0,2.4,0,4.7,0,7.1c-7.4,0-14.8,0-22.2,0c0-2.4,0-4.7,0-7.1
		C42.7,30.9,50.1,30.9,57.5,30.9z M32.9,53.6c-0.2,0-0.4,0-0.6,0h-6.6v0c-0.9,0-1.8,0-2.7,0c0-7,0-13.9,0-20.9
		c0-2.4,1.8-4.7,4.1-5.3c0.5-0.1,1-0.2,1.5-0.2c1.4,0,2.8,0,4.3,0c0,7.1,0,14.1,0,21.2C32.9,50.2,32.8,51.9,32.9,53.6z M16.5,33.1
		c0-2.9,0.9-5.7,2.7-7.9c1.8-2.4,4.6-4,7.5-4.6c2-0.4,4.1-0.1,6.2-0.2c0,1.4,0,2.8,0,4.3c-1.5,0-2.9,0-4.4,0
		c-2.4,0.1-4.7,1.2-6.2,3.1c-1.2,1.4-1.8,3.3-1.8,5.1c0,6.9,0,13.8,0,20.8c-1.3,0-2.7,0-4,0C16.5,46.8,16.5,40,16.5,33.1z
		 M17.6,56.1c4.1,0,8.1,0,12.2,0h0.6c0,0,0,0,0,0c0.1,0,0.2,0,0.4,0h25.3v0c0.3,0,0.6,0,0.9,0c0,0,0,0,0,0h0.5v0h1.7c0,0,0,0,0,0
		c0,0,0.1,0,0.2,0H60h0.1h0c0.2,0,0.5,0,0.7,0v0h0c0,0,0,0,0,0c0.1,0,0.2,0,0.3,0c0.1,0,0.3,0,0.4,0h0.3c0,0,0,0,0,0
		c0.3,0,0.7,0,1,0c0,0,0,0,0,0h0.3c0,0,0,0,0,0c0.1,0,0.3,0,0.4,0c0,0,0,0,0,0h0.3c0,0,0,0,0,0c0.3,0,0.6,0,0.9,0c0,0,0,0,0,0h0.3
		c0,0,0,0,0,0c0.1,0,0.3,0,0.4,0c0.1,0,0.2,0,0.3,0c0,0,0,0,0,0h0v0c0.3,0,0.6,0,0.8,0v0H67c0,0,0,0,0,0c0.1,0,0.2,0,0.3,0h1.7
		c0.9,0,1.8,0,2.8,0c6.9,0,13.8,0,20.7,0c0,11,0,22,0,32.9h-0.1c-28.3,0-56.6,0-84.8,0H7.5c0-2.9,0-5.8,0-8.7c0-8.1,0-16.1,0-24.2
		C10.9,56.1,14.2,56.1,17.6,56.1z"/>
	<path class="st13" d="M12.2,71.7c3.6,0,7.2,0,10.8,0c0.7,0,1.3-0.6,1.3-1.3c0-3.3,0-6.5,0-9.8c-0.2-0.5-0.7-1-1.3-1
		c-3.6,0-7.2,0-10.8,0c-0.7,0-1.3,0.6-1.3,1.2c0,3.2,0,6.3,0,9.5C10.9,71.1,11.5,71.7,12.2,71.7z M13.5,62.2c2.8,0,5.5,0,8.3,0
		c0,2.3,0,4.6,0,7c-2.8,0-5.5,0-8.3,0C13.5,66.8,13.5,64.5,13.5,62.2z"/>
	<path class="st13" d="M28.5,71.7c3.4,0,6.8,0,10.2,0c0.4,0,0.9,0.1,1.2-0.2c0.4-0.2,0.6-0.7,0.6-1.1c0-2.9,0-5.9,0-8.8
		c0-0.4,0-0.8,0-1.1c-0.1-0.2-0.3-0.4-0.4-0.6c-0.3-0.1-0.5-0.3-0.8-0.2c-3.6,0-7.2,0-10.7,0c-0.7,0-1.3,0.6-1.3,1.2
		c0,3.2,0,6.4,0,9.6C27.2,71.2,27.8,71.7,28.5,71.7z M29.6,62.2c2.8,0,5.6,0,8.3,0c0,2.3,0,4.6,0,6.9c-2.8,0-5.6,0-8.3,0
		C29.6,66.8,29.6,64.5,29.6,62.2z"/>
	<path class="st13" d="M44.6,71.7c3.6,0,7.2,0,10.8,0c0.6,0,1.1-0.5,1.3-1c0-3.3,0-6.5,0-9.8c0-0.7-0.6-1.2-1.3-1.2
		c-3.6,0-7.1,0-10.7,0c-0.7-0.1-1.4,0.5-1.4,1.2c0,3.3,0,6.5,0,9.8C43.5,71.2,44,71.7,44.6,71.7z M45.8,62.2c2.8,0,5.5,0,8.3,0
		c0,2.3,0,4.6,0,7c-2.8,0-5.5,0-8.3,0C45.8,66.8,45.8,64.5,45.8,62.2z"/>
	<path class="st13" d="M59.5,62.7c0,2.6,0,5.2,0,7.8c0,0.7,0.7,1.2,1.3,1.2c3.6,0,7.1,0,10.7,0c0.7,0,1.4-0.6,1.3-1.3
		c0-3.2,0-6.3,0-9.5c0-0.7-0.6-1.3-1.3-1.2c-3.6,0-7.1,0-10.7,0c-0.3,0-0.6,0.1-0.8,0.2c-0.1,0.2-0.3,0.4-0.4,0.6
		C59.5,61.2,59.5,61.9,59.5,62.7z M62,62.2c2.8,0,5.6,0,8.3,0c0,2.3,0,4.6,0,6.9c-2.8,0-5.6,0-8.3,0C62,66.8,62,64.5,62,62.2z"/>
	<path class="st13" d="M75.8,71c0.2,0.4,0.7,0.7,1.1,0.7c3.6,0,7.2,0,10.8,0c0.7,0,1.3-0.6,1.3-1.3c0-3.2,0-6.3,0-9.5
		c0-0.7-0.6-1.2-1.3-1.2c-3.6,0-7.1,0-10.7,0c-0.6,0-1.2,0.4-1.4,1c0,3.1,0,6.2,0,9.2C75.7,70.2,75.7,70.6,75.8,71z M78.2,62.2
		c2.8,0,5.5,0,8.3,0c0,2.3,0,4.6,0,7c-2.8,0-5.5,0-8.3,0C78.2,66.8,78.2,64.5,78.2,62.2z"/>
	<path class="st13" d="M23,73.5c-3.5,0-7,0-10.4,0c-0.3,0-0.6,0-0.9,0.1c-0.5,0.2-0.8,0.7-0.8,1.1c0,3.2,0,6.3,0,9.5
		c0,0.7,0.6,1.3,1.3,1.3c3.6,0,7.2,0,10.8,0c0.7,0,1.3-0.6,1.3-1.3c0-3.2,0-6.3,0-9.5C24.3,74.1,23.7,73.5,23,73.5z M13.5,83
		c0-2.3,0-4.6,0-6.9c2.8,0,5.5,0,8.3,0c0,2.3,0,4.6,0,7C19,83,16.2,83,13.5,83z"/>
	<path class="st13" d="M28.5,85.5c3.6,0,7.2,0,10.8,0c0.7,0,1.2-0.6,1.2-1.3c0-3.3,0.1-6.6,0-9.9c-0.3-0.5-0.7-0.8-1.3-0.8
		c-3.6,0-7.2,0-10.7,0c-0.7,0-1.3,0.5-1.3,1.2c0,3.2,0,6.3,0,9.5C27.1,84.9,27.8,85.5,28.5,85.5z M29.6,76c2.8,0,5.6,0,8.3,0
		c0,2.3,0,4.6,0,6.9c-2.8,0-5.6,0-8.4,0C29.7,80.6,29.6,78.3,29.6,76z"/>
	<path class="st13" d="M56.7,74.7c0-0.7-0.6-1.2-1.2-1.2c-3.4,0-6.8,0-10.2,0c-0.4,0-0.8,0-1.2,0.1c-0.5,0.2-0.8,0.8-0.8,1.3
		c0,3.1,0,6.2,0,9.3c0,0.7,0.6,1.3,1.3,1.3c3.4,0,6.8,0,10.1,0c0.3,0,0.6,0,1,0c0.6-0.1,1-0.7,1-1.2C56.7,81.1,56.7,77.9,56.7,74.7z
		 M54.2,83c-2.8,0-5.5,0-8.3,0c0-2.3,0-4.6,0-7c2.8,0,5.5,0,8.3,0C54.2,78.3,54.2,80.6,54.2,83z"/>
	<path class="st13" d="M72.9,74.7c0-0.7-0.6-1.3-1.3-1.2c-3.6,0-7.1,0-10.7,0c-0.6,0-1,0.3-1.3,0.8c0,0.4,0,0.8,0,1.3
		c0,2.9,0,5.8,0,8.7c0,0.5,0.2,0.9,0.7,1.1c0.3,0.2,0.7,0.1,1,0.1c3.4,0,6.9,0,10.3,0c0.7,0,1.4-0.6,1.3-1.3
		C72.9,81,72.9,77.9,72.9,74.7z M62,83c0-2.3,0-4.6,0-6.9c2.8,0,5.6,0,8.3,0c0,2.3,0,4.6,0,6.9C67.6,83,64.8,83,62,83z"/>
	<path class="st13" d="M77,85.5c3.6,0,7.2,0,10.8,0c0.7,0,1.3-0.6,1.2-1.3c0-3.2,0-6.3,0-9.5c0-0.7-0.6-1.2-1.3-1.2
		c-3.5,0-7,0-10.4,0c-0.3,0-0.6,0-0.9,0.1c-0.5,0.2-0.8,0.7-0.8,1.3c0,3.1,0,6.1,0,9.2C75.6,84.8,76.2,85.5,77,85.5z M78.2,76
		c2.8,0,5.5,0,8.3,0c0,2.3,0,4.6,0,6.9c-2.8,0-5.6,0-8.3,0C78.2,80.6,78.2,78.3,78.2,76z"/>
</g>
</svg>
