<?xml version="1.0" encoding="utf-8"?>
<!-- Generator: Adobe Illustrator 25.0.0, SVG Export Plug-In . SVG Version: 6.00 Build 0)  -->
<svg version="1.1" id="Layer_1" xmlns="http://www.w3.org/2000/svg" xmlns:xlink="http://www.w3.org/1999/xlink" x="0px" y="0px"
	 viewBox="0 0 100 100" style="enable-background:new 0 0 100 100;" xml:space="preserve">
<style type="text/css">
	.st0{fill:#FBBC05;}
</style>
<g>
	<path class="st0" d="M95.45,38.91C91.53,23.72,81.92,12.67,66.9,6.07C66.76,6,66.66,5.97,66.55,5.93c-0.06-0.02-0.11-0.04-0.26-0.1
		c-1.24-0.45-1.47-0.57-1.14-1.55c0.31-0.77,0.25-1.63-0.13-2.25C64.62,1.21,63.94,0.66,63,0.39c-2-0.54-3.58,0.14-4.2,1.76
		c-0.44,0.98-0.49,1.05-1.51,0.74c-4.11-1.26-8.41-1.87-13.16-1.87c-10.07,0-19.32,2.88-27.5,8.57c-5.6,3.85-9.46,9.16-12.5,13.84
		L4.05,23.6C3.76,24.14,3,25.59,4.22,26.94c1.11,1.11,2.43,0.54,2.85,0.36c5.42-2.15,13.95-0.31,17.91,3.87
		c0.39,0.4,0.59,0.79,0.68,1.36c0.14,1.26,0.63,2.05,1.45,2.35c0.78,0.43,1.82,0.17,2.62-0.64c1.23-1.04,2.53-1.04,3.97-0.94
		c3.79,0.32,7.36,1.46,11.21,3.61c2.09,1.15,2.49,2.3,1.48,4.23c-0.49,0.85-0.72,1.69-0.92,2.53l-0.1,0.37
		c-0.18,0.64-0.36,1.31-0.6,1.78c-0.77,1.42-0.96,2.55-0.59,3.54c0.38,1.16,1.27,1.95,2.81,2.54c0.57,0.28,1.42,0.71,2.19,0.32
		c0.66-0.33,0.93-1.03,1.2-1.83c0.24-1.03,0.6-2.07,0.95-3.08l0.56-1.62c0.48-1.34,1.03-2.86,1.39-4.23
		c0.35-0.98,0.65-1.19,1.64-1.1c5.14,0.32,9.44,1.87,13.16,4.75c0.92,0.72,1.41,1.24,1.49,2.07c0.14,1.21,0.72,2.07,1.62,2.37
		c0.87,0.29,1.91-0.08,2.62-0.94c0.78-0.87,1.62-0.87,2.99-0.87c2.58,0,5.36,0.66,8.51,2.01c3.38,1.4,5.52,2.73,6.46,5.38
		c0.53,1.42,1.5,1.71,2.22,1.71h0.39l0.07-0.01c0.75-0.16,2.01-0.75,2.01-2.9l0-3.3C96.46,46.76,96.47,42.77,95.45,38.91z
		 M93.38,54.48c-1.28-3.61-4.14-5.1-7.49-6.56c-3.47-1.44-6.4-2.11-9.33-2.11h-0.32c-1.23,0-2.65,0.12-4.02,1.49
		c-0.31,0.31-0.51,0.39-0.58,0.38c0,0-0.18-0.12-0.28-0.78c-0.25-1.75-1.26-2.65-2.18-3.34c-3.99-3.11-8.63-4.79-14.19-5.12
		c-1.88-0.12-3.05,0.7-3.56,2.49l-1.62,4.88c-0.43,1.31-0.87,2.72-1.31,4.17c-0.04,0.15-0.09,0.38-0.11,0.49
		c-0.13-0.04-0.32-0.13-0.53-0.26c-0.99-0.45-1.67-1-1.82-1.47c-0.14-0.42,0-1.01,0.49-1.98c0.47-0.83,0.7-1.75,0.93-2.64l0.1-0.34
		c0.18-0.65,0.37-1.32,0.62-1.83c1.47-3.06,0.73-5.26-2.32-6.9c-3.88-2.16-7.89-3.43-11.95-3.77c-1.83-0.11-3.76-0.1-5.41,1.44
		c-0.39,0.31-0.62,0.35-0.64,0.36c-0.05-0.04-0.19-0.27-0.27-0.73c0-1.01-0.36-1.81-1.15-2.61c-4.56-4.8-13.74-6.76-20.06-4.27
		c-0.59,0.25-0.62,0.22-0.81,0.03c-0.11-0.11-0.28-0.29,0.19-1.04c2.97-4.47,6.72-9.54,12.05-13.28c7.91-5.47,16.77-8.24,26.33-8.24
		c5.09,0.11,9.12,0.69,12.7,1.82c2.22,0.66,3.16-0.27,3.9-1.88c0.38-0.93,1.19-0.85,1.77-0.63c0.3,0.12,0.69,0.33,0.9,0.74
		c0.09,0.13,0.1,0.38,0.03,0.64c-0.96,2.89,1.11,3.64,2.16,4.02c0.14,0.07,0.25,0.11,0.35,0.14c0.06,0.02,0.11,0.04,0.22,0.09
		c14.58,6.34,23.8,16.93,27.42,31.45c0.97,4.11,0.95,8.28,0.85,12.2v2.29c0,0.93-0.31,0.98-0.49,1.01
		C93.69,54.89,93.55,54.93,93.38,54.48z"/>
	<path class="st0" d="M25.26,66.92c1.14-0.13,1.89-0.53,2.7-1.11c1.02-0.82,1.77-0.99,2.11-0.87c0.42,0.14,0.88,0.79,1.34,1.91
		c0.64,1.83,1.29,3.66,1.94,5.62c0.32,0.86,0.64,1.83,0.96,2.77l0.69,2.41l2.55-5.56c0.79-1.65,1.58-3.21,2.37-4.77
		c0.4-0.79,0.8-1.58,1.19-2.36c0.9-1.69,1.35-2.32,2.53-2.16c1.06,0.08,1.38,0.75,1.93,2.39c1.49,4.47,3.02,9.09,4.65,13.78
		l2.55,7.39l1-2c0.75-1.51,1.51-3.02,2.26-4.43c1.89-3.55,3.42-6.55,4.78-9.69c1.19-2.69,2.74-3.62,5.77-3.42
		c2.4,0.11,4.79,0.11,7.13,0c0.94-0.1,2.01-0.1,3.07-0.1h0.26l1.13-1.13L78.14,65c-1.35-8.93-7.28-13.98-16.09-13.88
		c-4.45,0-7.81,1.84-11.14,3.89c-0.95,0.57-0.97,0.58-1.66,0.05c-3.3-2.65-7.58-4.04-12.4-4.04h-0.23
		c-6.95,0.11-12.21,4.47-14.43,11.93c-0.36,1.07-0.62,2.29,0.07,3.15C22.77,66.84,23.75,67.11,25.26,66.92z M36.54,52.93
		c4.3,0,8.17,1.26,11.16,3.65c1.61,1.34,2.7,0.87,3.86,0.17c3.88-2.24,6.7-3.71,10.4-3.71c9.88-0.17,13.15,6.13,14.11,11.64
		c-0.38,0.01-0.75,0.03-1.13,0.05c-0.48,0.03-0.95,0.05-1.46,0.05c-2.14,0.1-4.56,0.22-6.85,0c-3.81-0.25-6.17,1.18-7.64,4.6
		c-1.3,2.79-2.87,6.11-4.76,9.66c-0.34,0.75-0.73,1.56-1.13,2.35l-1.35-3.96c-1.5-4.43-2.92-8.6-4.33-12.83
		c-0.4-1.41-1.01-3.55-3.64-3.82h-0.43c-1.92,0-2.87,1.45-3.56,2.51c-0.11,0.16-0.21,0.32-0.37,0.56c-1.08,2.28-2.28,4.68-3.57,7.16
		l-0.49,1.04c-0.06-0.18-0.11-0.36-0.17-0.53c-0.65-1.95-1.3-3.8-1.96-5.69c-0.61-1.42-1.36-2.78-2.72-3.08
		c-1.12-0.25-2.36,0.16-3.9,1.33c-0.54,0.45-0.96,0.63-1.71,0.72c-0.26,0.03-1.04,0.1-1.26,0.03c-0.05-0.13-0.08-0.55,0.2-1.39
		C25.82,56.66,30.29,52.93,36.54,52.93z M23.66,64.85C23.66,64.85,23.66,64.86,23.66,64.85l-0.47,0.31L23.66,64.85z"/>
	<path class="st0" d="M75.58,69.13c-2.57,0.11-5.37,0.11-8.82,0c-1.96,0-3.05,0.68-3.92,2.42c-1.4,2.92-2.81,5.74-4.21,8.56
		c-0.38,0.76-0.75,1.49-1.13,2.21c-0.38,0.74-0.76,1.47-1.14,2.23c-0.58,1.16-1.81,3.08-3.47,2.91c-1.69-0.19-2.8-1.92-3.24-3.32
		c-0.06-0.24-0.15-0.48-0.24-0.72c-0.07-0.19-0.15-0.39-0.21-0.63c-0.06-0.17-0.12-0.32-0.17-0.46c-0.05-0.13-0.1-0.25-0.15-0.4
		l-5.39-16.34l-0.96,2.24c-0.37,0.67-0.7,1.35-1,1.99c-0.14,0.29-0.28,0.58-0.41,0.86c-0.29,0.57-0.55,1.13-0.81,1.67
		c-0.61,1.27-1.19,2.48-1.87,3.62c-1.12,1.97-2.09,2.75-3.26,2.61c-1.31-0.18-2.47-1.26-3.15-2.89c-0.06-0.24-0.15-0.48-0.24-0.72
		c-0.07-0.19-0.15-0.39-0.21-0.64c-1.84-5.18-2.18-5.42-7.41-5.19h-0.22c-0.76,0-1.71,0.09-2.3,0.89c-0.3,0.6-0.39,1.31-0.28,2.2
		c0.78,6.38,4.03,11.63,9.66,15.62c3.39,2.5,6.93,4.8,10.36,7.02l0.93,0.6c1.91,1.17,3.87,2.37,5.78,3.71l0.16,0.08
		c0.43,0.22,1.03,0.53,1.75,0.53c0.63,0,1.18-0.18,1.67-0.55c2.04-1.46,4.23-2.82,6.34-4.13L59,94.5c3.84-2.35,7.8-4.78,11.3-7.76
		c4.64-3.88,7.33-8.48,8.21-14.02c0.19-0.87,0.33-1.97-0.39-2.86C77.51,69.24,76.75,69.02,75.58,69.13z M23.28,71.12
		c0.09-0.03,0.28-0.07,0.66-0.07H26c2.25,0,2.32,0.2,3.46,3.48l0.14,0.39c0.11,0.46,0.23,0.93,0.46,1.37
		c0.97,2.42,2.69,3.95,4.72,4.19c2.9,0.41,4.56-2.48,5.19-3.58c0.87-1.63,1.74-3.37,2.71-5.33c0.11-0.21,0.21-0.42,0.31-0.63
		l3.92,11.61c0.06,0.18,0.12,0.32,0.18,0.47c0.05,0.12,0.1,0.25,0.15,0.4c0.04,0.13,0.1,0.28,0.17,0.44
		c0.09,0.22,0.19,0.46,0.26,0.74c0.86,2.72,2.83,4.55,5,4.67c2.18,0.11,4.01-1.23,5.47-4.04c0.38-0.76,0.75-1.49,1.13-2.21
		c0.38-0.73,0.76-1.47,1.14-2.23c1.41-2.82,2.81-5.64,4.23-8.61c0.44-1.07,0.84-1.33,1.99-1.24c3.47,0.11,6.42,0.11,8.99,0
		c0.89,0,1.05,0.13,1.06,0.14c0.08,0.08,0,0.62-0.04,0.97l-0.03,0.22c-0.85,5.11-3.32,9.31-7.57,12.84
		c-3.43,2.92-7.18,5.29-11.39,7.87c-0.65,0.42-1.3,0.82-1.95,1.23c-1.69,1.06-3.44,2.15-5.14,3.37c-0.28,0.24-0.57,0.38-1.42-0.16
		c-0.97-0.59-1.91-1.21-2.85-1.83c-0.95-0.63-1.9-1.25-2.88-1.85c-4.14-2.61-7.8-5.05-11.21-7.46c-5.19-3.72-8.2-8.54-8.93-14.33
		C23.21,71.47,23.24,71.24,23.28,71.12z"/>
</g>
</svg>
