<?xml version="1.0" encoding="utf-8"?>
<!-- Generator: Adobe Illustrator 25.0.0, SVG Export Plug-In . SVG Version: 6.00 Build 0)  -->
<svg version="1.1" id="Layer_1" xmlns="http://www.w3.org/2000/svg" xmlns:xlink="http://www.w3.org/1999/xlink" x="0px" y="0px"
	 viewBox="0 0 100 100" style="enable-background:new 0 0 100 100;" xml:space="preserve">
<style type="text/css">
	.st0{fill:#FBBC05;}
</style>
<g>
	<path class="st0" d="M99.09,47.61l-0.05-0.08c-0.52-0.69-1.47-0.77-1.83-0.77c0,0-0.01,0-0.01,0c-0.45-0.03-0.92-0.07-1-0.14
		c-0.06-0.08-0.1-0.49-0.13-0.85l0-0.5c-1.05-10.85-5.3-20.2-12.65-27.8C74.89,8.69,63.78,3.52,52.92,3.29
		c-8.42,0-14.73,1.1-20.44,3.58C21.39,11.57,13.19,19.6,8.09,30.76c-0.84,2.05-0.95,3.8-0.34,5.51c0.34,0.86,0.8,1.64,1.25,2.4
		c0.17,0.28,0.33,0.57,0.49,0.85l0.37,0.4c0.48,0.89,1.17,0.89,1.43,0.89c0.47,0,1.1-0.39,1.4-1.32c0.06-0.29,0.15-0.56,0.25-0.82
		c0.08-0.22,0.15-0.43,0.19-0.6c0.06-0.17,0.09-0.31,0.12-0.44c0.03-0.13,0.05-0.22,0.11-0.36c5.73-17.93,24.63-29.5,43-26.36
		c11.13,1.92,20.01,7.68,26.4,17.13c3.62,5.44,5.73,11.54,6.29,18.09c0,0.22,0,0.57-0.03,0.72c-0.14,0.03-0.43,0.03-0.61,0.03
		c-0.98,0-1.65,0.29-1.93,0.85c-0.36,0.72,0.03,1.53,0.35,2.06c1.36,2.51,2.86,5.05,4.36,7.59l0.12,0.16
		c0.33,0.45,0.78,1.07,1.54,1.07c0.77,0,1.41-0.67,1.6-1.33c0.73-1.29,1.46-2.56,2.19-3.83c0.74-1.28,1.48-2.56,2.23-3.9
		C99.14,48.98,99.42,48.26,99.09,47.61z M92.96,56.51c-0.06,0.12-0.11,0.21-0.15,0.27c-0.03-0.05-0.07-0.11-0.11-0.19
		c-0.74-1.25-1.45-2.5-2.15-3.75c-0.71-1.26-1.43-2.52-2.18-3.8c-0.1-0.15-0.16-0.27-0.2-0.35c0.1-0.01,0.24-0.01,0.43-0.02
		l0.36-0.05c0.62-0.08,1.11-0.14,1.52-0.55c0.42-0.42,0.4-1,0.38-1.56c0-0.13-0.01-0.26-0.01-0.43c-0.45-6.67-2.72-13.23-6.57-18.96
		c-6.69-9.95-15.99-15.94-27.61-17.78c-1.78-0.4-3.81-0.58-6.36-0.58c-17.47,0-33.34,11.5-38.55,27.89
		c-0.09,0.17-0.12,0.36-0.16,0.52c-0.02,0.1-0.04,0.22-0.07,0.27l-0.04,0.1c-0.05,0.21-0.13,0.42-0.21,0.63
		c-0.06,0.16-0.12,0.33-0.17,0.48l-0.27-0.42c-0.5-0.79-1.06-1.7-1.36-2.59c-0.52-1.24-0.41-2.56,0.33-4.16
		c4.88-10.71,12.75-18.41,23.4-22.91C38.95,6.21,44.88,5.2,53.02,5.2c10.33,0.11,21.02,5.09,29.33,13.65
		c7.04,7.29,11.13,16.28,12.14,26.69l0,0.51c0.26,2.19,0.56,2.48,2.77,2.61c0.09,0,0.16,0,0.22,0.01c-0.02,0.04-0.05,0.09-0.08,0.14
		l0,0c-0.74,1.26-1.48,2.54-2.22,3.83C94.46,53.94,93.72,55.23,92.96,56.51z"/>
	<path class="st0" d="M88.86,59.2c-0.54,0-1,0.36-1.36,1.08c-0.08,0.16-0.12,0.32-0.15,0.44c-0.02,0.09-0.04,0.18-0.08,0.24
		l-0.05,0.11v0.16c-2.13,7.49-6.17,13.8-11.99,18.74c-8.74,7.42-18.9,10.49-30.22,9.13C35.23,87.96,27,83.63,20.53,76.26
		c-5.66-6.47-8.87-14.17-9.54-22.83c0-0.12,0-0.28,0.01-0.4c0.12-0.01,0.29-0.01,0.4-0.01h0.57c0.78,0,1.31-0.25,1.67-0.79
		c0.45-0.68,0.05-1.49-0.09-1.78c-1.46-2.6-3.04-5.31-4.62-8.02l-0.06-0.11c-0.48-0.72-0.94-1.02-1.55-1.02
		c-0.85,0-1.3,0.59-1.57,1.05c-0.54,0.95-1.09,1.9-1.65,2.87c-0.98,1.7-2,3.46-3.03,5.37c-0.13,0.27-0.54,1.07-0.08,1.76
		c0.36,0.54,0.89,0.79,1.67,0.79h0.8c0.15,0,0.35,0,0.33-0.03c0,0,0.08,0.09,0.08,0.36c0.12,2.18,0.46,4.27,0.81,6.23
		C8.91,81.02,27.91,96.6,49.84,96.71h0.08L50,96.68c0.27-0.09,0.55-0.09,0.75-0.09c0.82,0,1.74,0,2.55-0.12
		c17.16-1.72,29.96-10.53,38.05-26.18c1.67-3.47,1.32-6.84-1.07-10.33C89.86,59.4,89.27,59.2,88.86,59.2z M53.26,94.8
		c-0.41,0-0.82,0.03-1.23,0.06c-0.39,0.03-0.77,0.06-1.16,0.06h-1.14c-21.03,0-39.24-14.95-43.3-35.54
		c-0.33-1.75-0.68-3.82-0.8-6.05c-0.11-0.54-0.24-1.21-0.7-1.51c-0.32-0.33-0.79-0.49-1.38-0.49h-0.8c-0.06,0-0.11,0-0.16-0.01
		c0.01-0.02,0.02-0.04,0.02-0.05c0.86-1.54,1.71-3,2.55-4.44c0.71-1.22,1.41-2.42,2.12-3.7c0.01,0.02,0.02,0.04,0.03,0.06
		c1.52,2.5,3.09,5.19,4.67,8c0,0,0.01,0.01,0.01,0.01c-0.04,0-0.09,0.01-0.16,0.01l-0.67,0.01c-0.11,0.02-0.21,0.04-0.31,0.06
		c-0.47,0.08-0.96,0.16-1.26,0.61C9.3,52.36,9.3,52.9,9.31,53.57c0.69,9.08,4.06,17.13,10.02,23.91c6.9,7.74,15.5,12.25,25.57,13.4
		c11.75,1.39,22.33-1.84,31.44-9.59c6.05-5.25,10.27-11.86,12.55-19.63l0.02-0.14c0.04-0.09,0.06-0.16,0.09-0.24
		c0.01-0.03,0.02-0.06,0.03-0.1c2.02,2.91,2.28,5.49,0.87,8.33C82.14,84.6,69.8,93.11,53.26,94.8z"/>
	<path class="st0" d="M34.9,55.52L34.9,55.52c-0.5,3.61-0.42,6.57,0.23,9.3c0.6,2.9,1.55,3.78,4.63,4.27
		c3.43,0.48,6.82,0.58,9.05,0.58c0.31,0,0.6,0,0.86,0.09l0.16,0.03c3.79,0,6.98-0.1,10.2-0.58c3.44-0.49,4.35-1.35,5.07-4.78
		c0.14-0.3,0.14-0.49,0.14-0.73l0-0.16c0.23-1.63,0.23-3.39,0.23-5.09v-1.03c0-4.54-2.19-7.05-7.1-8.13l-0.18-0.02
		c-0.32-0.04-1.18-0.14-1.73,0.84c-0.61,1.12-1.43,2.18-2.16,3.12l-0.19,0.25c-0.2,0.28-0.41,0.55-0.62,0.83
		c-0.49,0.66-1,1.34-1.47,2.07c-0.36-1.9-0.31-3.25,1.02-4.42l0.16-0.17c0.39-0.53,0.49-1.03,0.3-1.6l-0.04-0.11l-0.08-0.08
		c-0.39-0.4-0.87-0.6-1.38-0.6h-3.53c-0.34,0-1.23,0-1.5,0.8c-0.19,0.56-0.09,1.07,0.29,1.58L47.42,52
		c0.13,0.21,0.25,0.39,0.42,0.57c0.05,0.1,0.11,0.18,0.16,0.27c0.05,0.07,0.09,0.14,0.17,0.28c0.4,0.6,0.58,1.16,0.49,1.59
		c-0.06,0.39-0.14,0.81-0.22,1.23c-0.03,0.14-0.06,0.28-0.08,0.41c-0.74-1.17-1.55-2.21-2.24-3.05c-0.77-0.99-1.56-2.01-2.23-3.14
		c-0.2-0.29-0.72-1.07-1.76-0.9C37.69,50.13,35.39,52.11,34.9,55.52z M48.3,59.26c0.27,0.03,0.54-0.04,0.71-0.19
		c0.47-0.33,0.65-0.82,0.64-0.98l0.11-0.55c0.11-0.44,0.19-0.86,0.26-1.27c0.08,0.53,0.19,1.04,0.29,1.53l0.06,0.29l0.04,0.12
		c0.02,0.03,0.03,0.07,0.04,0.11c0.08,0.24,0.23,0.67,0.82,0.83v0.6l0.3-0.55c0,0,0.01,0,0.01,0c0.44,0,0.8-0.29,1.08-0.85
		c0.69-1.28,1.51-2.49,2.68-3.92c0.89-1.12,1.81-2.27,2.52-3.55c0.03-0.04,0.06-0.07,0.05-0.07l0.13,0.03
		c4.08,0.86,5.75,2.74,5.75,6.47v1.03c0,1.61,0,3.27-0.23,4.91v0.08c-0.11,0.22-0.11,0.46-0.11,0.51c-0.52,2.72-0.87,3.04-3.69,3.48
		c-2.71,0.47-5.58,0.56-9.92,0.56c-2.43,0-6.1,0-9.83-0.57c-2.39-0.31-2.69-0.58-3.21-2.91c-0.58-2.78-0.65-5.71-0.22-8.74
		c0.31-2.56,2.08-4.08,5.56-4.76c0.02,0.06,0.03,0.14,0.05,0.24l0.06,0.16c0.7,1.18,1.52,2.23,2.32,3.25
		c0.86,1.05,1.95,2.45,2.8,4.05C47.68,59.11,48.09,59.23,48.3,59.26z M50.09,53.32c-0.13-0.39-0.33-0.78-0.59-1.14
		c-0.07-0.13-0.13-0.24-0.2-0.34c-0.05-0.07-0.09-0.14-0.14-0.23l-0.09-0.13c-0.15-0.15-0.3-0.3-0.39-0.41l2.71-0.03
		C50.69,51.76,50.29,52.53,50.09,53.32z"/>
	<path class="st0" d="M49.83,48.79h0.12c3.01,0,5.61-1.08,7.51-3.1c2.05-1.94,3.23-4.73,3.23-7.67c0-2.88-1.06-5.6-2.98-7.65
		c-1.93-2.06-4.68-3.24-7.53-3.24h-0.11c-2.89,0-5.49,1.08-7.53,3.12c-1.99,2.13-3.09,4.8-3.09,7.53
		C39.45,43.84,44.01,48.67,49.83,48.79z M45.85,30.06c1.29-0.67,2.71-1.01,4.22-1.01c2.5,0,4.66,0.89,6.58,2.71
		c1.59,1.6,2.47,3.86,2.47,6.36c-0.12,2.67-1.07,4.98-2.69,6.5c-1.73,1.63-4.01,2.49-6.6,2.49c-4.89,0-8.71-4.04-8.71-9.2
		c0-0.59,0.06-1.18,0.18-1.75c0.34-1.7,1.2-3.3,2.41-4.51C44.35,31,45.07,30.47,45.85,30.06z"/>
	<path class="st0" d="M24.86,48.93c-2.93-0.25-6.08,2.11-6.45,4.88c-0.33,2.34-0.26,4.67,0.23,7.13c0.37,1.85,1.51,2.87,3.51,3.14
		c2.34,0.24,4.28,0.35,6.08,0.35h3.98c0.72,0,1.34,0,1.83-0.49c0.37-0.37,0.37-0.94,0.37-1.72l-0.01-1.12
		c-0.1-0.52-0.1-1.19-0.1-1.73c0-2.86,0-5.83,2.36-7.98c0.32-0.32,0.49-0.71,0.49-1.15c0-0.38-0.19-0.88-1.11-1.07l-0.25-0.04
		c-0.51-0.08-1.1-0.17-1.73-0.04c2.25-1.37,3.7-3.83,3.78-6.83c0.06-2.16-0.74-4.21-2.25-5.76c-1.51-1.55-3.51-2.4-5.64-2.4
		c-2.2,0-4.37,0.87-5.81,2.31c-1.56,1.57-2.42,3.64-2.42,5.83c0,2.94,1.5,5.45,3.79,6.85C25.3,49.01,25.09,48.93,24.86,48.93
		C24.86,48.93,24.86,48.93,24.86,48.93z M32.91,60.2c0.03,0.3,0.05,0.6,0.05,0.87v1.03c0,0.13,0,0.35-0.01,0.51
		c-0.1,0.01-0.26,0.02-0.51,0.02l-3.33,0c-1.98,0.11-4.12,0-6.71-0.34c-1.2-0.2-1.7-0.65-1.99-1.8c-0.51-1.95-0.58-4.09-0.21-6.55
		c0.19-1.65,2.35-3.32,4.28-3.32l0.41,0c0.05,0.01,0.2,0.08,0.32,0.14l0.15,0.13c2.93,1.76,5.81,1.76,8.84-0.01
		c0.28-0.19,0.56-0.25,0.91-0.22c-2.25,2.65-2.25,5.79-2.25,8.59C32.85,59.54,32.88,59.87,32.91,60.2z M23.5,42.24
		c0-1.66,0.71-3.36,1.9-4.55c1.15-1.16,2.72-1.79,4.42-1.79c3.42,0,6.21,2.85,6.21,6.35c0,3.62-2.72,6.35-6.31,6.35
		C26.23,48.48,23.5,45.69,23.5,42.24z M29.71,50.27c0.93,0,1.81-0.15,2.63-0.41c-2,0.95-4.12,0.83-6.19-0.37l-0.16-0.11
		C27.1,49.95,28.36,50.27,29.71,50.27z"/>
	<path class="st0" d="M78.44,42.24c0-4.57-3.47-8.15-7.89-8.15c-2.09,0-4.06,0.8-5.7,2.31c-1.56,1.57-2.42,3.64-2.42,5.83
		c0,4.5,3.52,8.03,8.01,8.03c1.04,0,2.06-0.2,3.01-0.57c-2.16,1.14-4.35,1.11-6.52-0.13c-0.91-0.52-1.81-0.64-2.93-0.41
		c-0.49,0.02-1.06,0.32-1.21,0.91c-0.15,0.46,0.01,0.97,0.48,1.44c1.42,1.31,2.12,3.01,2.23,5.38c0.11,1.45,0.11,3.16,0,5.03
		c-0.11,0.79-0.16,1.49,0.37,2.02c0.49,0.49,1.1,0.49,1.95,0.49h3.98c2.18,0,4.15-0.12,6.08-0.23c2.23-0.25,3.11-1.06,3.62-3.37
		c0.29-1.43,0.26-2.86,0.25-4.12c0-0.3-0.01-0.6-0.01-0.9c-0.12-3.98-1.62-5.78-5.48-6.63c-0.63-0.18-1.21-0.16-1.77,0.02
		c0.6-0.34,1.16-0.75,1.65-1.24C77.6,46.49,78.44,44.4,78.44,42.24z M67.29,56.83c-0.11-2.52-0.82-4.49-2.15-5.99
		c0.34-0.01,0.67,0.08,1.05,0.27c2.77,1.69,5.83,1.69,8.56,0.02c0.4-0.2,0.85-0.27,1.27-0.19c3.08,0.64,4.04,1.78,4.15,4.91
		c0.14,1.76,0.07,3.21-0.22,4.54c-0.3,1.52-0.61,1.8-2.18,2c-2.22,0.22-4.51,0.46-7.12,0.34h-2.84c-0.12,0-0.38,0-0.57-0.01
		c0-0.07,0.01-0.14,0.02-0.19c0.01-0.16,0.03-0.31,0.03-0.41C67.4,60.17,67.4,58.43,67.29,56.83z M70.43,48.47
		c-3.61,0-6.33-2.73-6.33-6.35c0-1.66,0.71-3.36,1.9-4.55c1.12-1.12,2.81-1.79,4.54-1.79c3.48,0,6.21,2.79,6.21,6.35
		c0,1.81-0.62,3.38-1.79,4.55C73.8,47.85,72.23,48.47,70.43,48.47z"/>
</g>
</svg>
